<svg xmlns="http://www.w3.org/2000/svg" xmlns:xlink="http://www.w3.org/1999/xlink" viewBox="0 0 44.59 31.76"><defs><style>.cls-1{fill:url(#Degradado_sin_nombre_90);}.cls-2{fill:url(#Degradado_sin_nombre_90-2);}</style><linearGradient id="Degradado_sin_nombre_90" y1="15.88" x2="31.76" y2="15.88" gradientUnits="userSpaceOnUse"><stop offset="0" stop-color="#061922"/><stop offset="1" stop-color="#103849"/></linearGradient><linearGradient id="Degradado_sin_nombre_90-2" x1="21.47" y1="22.54" x2="44.59" y2="22.54" xlink:href="#Degradado_sin_nombre_90"/></defs><g id="Capa_2" data-name="Capa 2"><g id="PRINT_1" data-name="PRINT 1"><path class="cls-1" d="M1.87,29.89h0a6.37,6.37,0,0,1,0-9l19-19a6.37,6.37,0,0,1,9,0h0a6.37,6.37,0,0,1,0,9l-19,19A6.37,6.37,0,0,1,1.87,29.89Z"/><path class="cls-2" d="M22.47,24.53l8.53-9a3.63,3.63,0,0,1,5.43.2l7.33,9A3.61,3.61,0,0,1,41,30.64H25.1A3.62,3.62,0,0,1,22.47,24.53Z"/></g></g></svg>